# xmcd
#
# Track frame offsets:
#	150
#	14996
#	29817
#	44167
#
# Disc length: 758 seconds
#
# Revision: 1
# Processed by: cddbd v1.5.2PL0 Copyright (c) Steve Scherf et al.
# Submitted via: EasyCDDAExtractor 15.3.0.1
#
DISCID=3d02f404
DTITLE=Annika Andersson - Hard Times  Good Times
DYEAR=2017
DGENRE=Blues
TTITLE0=Rock'n Roll Hoochie Koo
TTITLE1=Bloodred Roses
TTITLE2=Looking Out My Window
TTITLE3=Hard Times Killing Floor Blues
EXTD=
EXTT0=
EXTT1=
EXTT2=
EXTT3=
PLAYORDER=
